<svg width="18" height="18" viewBox="0 0 18 18" fill="none" xmlns="http://www.w3.org/2000/svg">
<path d="M0.670337 17.3346L1.797 13.1946C1.05462 11.922 0.664583 10.4746 0.667003 9.0013C0.667003 4.3988 4.39784 0.667969 9.00034 0.667969C13.6028 0.667969 17.3337 4.3988 17.3337 9.0013C17.3337 13.6038 13.6028 17.3346 9.00034 17.3346C7.52765 17.337 6.08088 16.9473 4.80867 16.2055L0.670337 17.3346ZM5.99284 5.0913C5.88522 5.09798 5.78007 5.12633 5.68367 5.17464C5.59327 5.22583 5.51075 5.28982 5.43867 5.36464C5.33867 5.4588 5.282 5.54047 5.22117 5.61964C4.91318 6.02046 4.74751 6.51248 4.75034 7.01797C4.752 7.4263 4.85867 7.8238 5.02534 8.19547C5.36617 8.94713 5.927 9.74297 6.66784 10.4805C6.84617 10.658 7.02034 10.8363 7.20784 11.0021C8.12733 11.8117 9.22305 12.3955 10.4078 12.7071L10.882 12.7796C11.0362 12.788 11.1903 12.7763 11.3453 12.7688C11.588 12.7563 11.825 12.6906 12.0395 12.5763C12.1778 12.503 12.2428 12.4663 12.3587 12.393C12.3587 12.393 12.3945 12.3696 12.4628 12.318C12.5753 12.2346 12.6445 12.1755 12.7378 12.078C12.807 12.0063 12.867 11.9221 12.9128 11.8263C12.9778 11.6905 13.0428 11.4313 13.0695 11.2155C13.0895 11.0505 13.0837 10.9605 13.0812 10.9046C13.0778 10.8155 13.0037 10.723 12.9228 10.6838L12.4378 10.4663C12.4378 10.4663 11.7128 10.1505 11.2703 9.9488C11.2237 9.92846 11.1737 9.91688 11.1228 9.91463C11.0658 9.90878 11.0082 9.9152 10.9539 9.93345C10.8995 9.9517 10.8498 9.98137 10.8078 10.0205V10.0188C10.8037 10.0188 10.7478 10.0663 10.1453 10.7963C10.1108 10.8428 10.0631 10.8779 10.0085 10.8972C9.95389 10.9165 9.89476 10.9191 9.83867 10.9046C9.78437 10.8901 9.73118 10.8717 9.6795 10.8496C9.57617 10.8063 9.54034 10.7896 9.4695 10.7588L9.46534 10.7571C8.98859 10.549 8.54719 10.2678 8.157 9.9238C8.052 9.83214 7.9545 9.73213 7.8545 9.63547C7.52665 9.3215 7.24093 8.96631 7.0045 8.5788L6.95534 8.49964C6.92002 8.44644 6.89147 8.38905 6.87034 8.3288C6.83867 8.2063 6.92117 8.10797 6.92117 8.10797C6.92117 8.10797 7.12367 7.8863 7.21784 7.7663C7.29624 7.66657 7.3694 7.56282 7.437 7.45547C7.53534 7.29714 7.56617 7.13464 7.5145 7.0088C7.28117 6.4388 7.0395 5.8713 6.79117 5.30797C6.742 5.1963 6.59617 5.1163 6.46367 5.10047C6.41867 5.09547 6.37367 5.09047 6.32867 5.08714C6.21676 5.08158 6.10462 5.08352 5.99284 5.0913Z" fill="#27AE60"/>
</svg>
